<svg width="15" height="16" viewBox="0 0 15 16" fill="none" xmlns="http://www.w3.org/2000/svg">
<g id="aid">
<g id="aid_2">
<path d="M12.9015 3.35395H11.7012V2.59849C11.7012 2.04194 11.4801 1.50818 11.0865 1.11463C10.693 0.72109 10.1592 0.5 9.60269 0.5H5.40571C4.84915 0.5 4.3154 0.72109 3.92185 1.11463C3.52831 1.50818 3.30722 2.04194 3.30722 2.59849V3.35395H2.09849C1.54194 3.35395 1.00818 3.57504 0.614633 3.96858C0.22109 4.36212 0 4.89588 0 5.45243V13.4015C0 13.9581 0.22109 14.4918 0.614633 14.8854C1.00818 15.2789 1.54194 15.5 2.09849 15.5H12.9015C13.1771 15.5 13.45 15.4457 13.7046 15.3403C13.9592 15.2348 14.1905 15.0802 14.3854 14.8854C14.5802 14.6905 14.7348 14.4592 14.8403 14.2046C14.9457 13.95 15 13.6771 15 13.4015V5.45243C15 5.17686 14.9457 4.90398 14.8403 4.64938C14.7348 4.39478 14.5802 4.16344 14.3854 3.96858C14.1905 3.77372 13.9592 3.61914 13.7046 3.51368C13.45 3.40822 13.1771 3.35395 12.9015 3.35395ZM4.14662 2.59849C4.14662 2.26456 4.27927 1.9443 4.51539 1.70818C4.75152 1.47205 5.07178 1.3394 5.40571 1.3394H9.60269C9.93662 1.3394 10.2569 1.47205 10.493 1.70818C10.7291 1.9443 10.8618 2.26456 10.8618 2.59849V3.35395H4.14662V2.59849ZM14.1606 13.4015C14.1606 13.7354 14.028 14.0557 13.7918 14.2918C13.5557 14.528 13.2354 14.6606 12.9015 14.6606H2.09849C1.76456 14.6606 1.4443 14.528 1.20818 14.2918C0.97205 14.0557 0.839396 13.7354 0.839396 13.4015V5.45243C0.839396 5.1185 0.97205 4.79825 1.20818 4.56212C1.4443 4.326 1.76456 4.19334 2.09849 4.19334H12.9015C13.2354 4.19334 13.5557 4.326 13.7918 4.56212C14.028 4.79825 14.1606 5.1185 14.1606 5.45243V13.4015Z" fill="#9D9C9C"/>
<path d="M9.60269 9.40599C9.60269 9.5173 9.55847 9.62405 9.47976 9.70276C9.40105 9.78147 9.2943 9.82569 9.18299 9.82569H7.9239V11.0848C7.9239 11.1961 7.87968 11.3028 7.80097 11.3815C7.72226 11.4603 7.61551 11.5045 7.5042 11.5045C7.39289 11.5045 7.28614 11.4603 7.20743 11.3815C7.12872 11.3028 7.0845 11.1961 7.0845 11.0848V9.82569H5.82541C5.7141 9.82569 5.60734 9.78147 5.52863 9.70276C5.44993 9.62405 5.40571 9.5173 5.40571 9.40599C5.40571 9.29468 5.44993 9.18793 5.52863 9.10922C5.60734 9.03051 5.7141 8.98629 5.82541 8.98629H7.0845V7.7272C7.0845 7.61589 7.12872 7.50913 7.20743 7.43043C7.28614 7.35172 7.39289 7.3075 7.5042 7.3075C7.61497 7.30923 7.72072 7.354 7.79905 7.43234C7.87739 7.51068 7.92216 7.61643 7.9239 7.7272V8.98629H9.18299C9.29376 8.98802 9.39951 9.0328 9.47785 9.11113C9.55618 9.18947 9.60096 9.29522 9.60269 9.40599Z" fill="#9D9C9C"/>
</g>
</g>
</svg>
