<svg xmlns="http://www.w3.org/2000/svg" width="46" height="46" fill="none">
  <path fill="#4F4C4C"
    d="M3.684.65C2.2 1.044 1.04 2.23.644 3.731c-.192.747-.192 13.887 0 14.634a4.298 4.298 0 0 0 3.075 3.091c.782.203 13.887.203 14.668 0a4.298 4.298 0 0 0 3.075-3.091c.202-.764.193-13.887 0-14.651A4.298 4.298 0 0 0 18.37.64C17.632.447 4.404.456 3.684.649Zm14.449 2.898c.132.097.325.29.421.422.185.237.185.307.185 7.079 0 6.772 0 6.842-.185 7.08a2.39 2.39 0 0 1-.421.421c-.237.185-.308.185-7.08.185s-6.842 0-7.08-.185a2.392 2.392 0 0 1-.42-.422c-.185-.237-.185-.333-.212-6.842-.017-3.636 0-6.728.027-6.886.061-.351.43-.8.79-.957.211-.097 1.537-.115 7-.097 6.65.017 6.738.017 6.975.202ZM27.575.65c-1.484.395-2.644 1.58-3.039 3.082-.193.747-.193 13.887 0 14.634a4.298 4.298 0 0 0 3.074 3.091c.782.203 13.887.203 14.669 0a4.298 4.298 0 0 0 3.074-3.091c.202-.764.193-13.887 0-14.651A4.298 4.298 0 0 0 42.26.64C41.523.447 28.295.456 27.575.649Zm14.449 2.898c.132.097.325.29.422.422.184.237.184.307.184 7.079 0 6.772 0 6.842-.184 7.08-.097.131-.29.324-.422.421-.237.185-.308.185-7.08.185s-6.842 0-7.08-.185a2.393 2.393 0 0 1-.42-.422c-.185-.237-.185-.333-.211-6.842-.018-3.636 0-6.728.026-6.886.061-.351.43-.8.79-.957.211-.097 1.538-.115 7-.097 6.65.017 6.738.017 6.975.202ZM3.684 24.54c-1.484.396-2.644 1.582-3.04 3.083-.192.747-.192 13.887 0 14.634a4.298 4.298 0 0 0 3.075 3.092c.782.202 13.887.202 14.668 0a4.298 4.298 0 0 0 3.075-3.092c.202-.764.193-13.887 0-14.651a4.298 4.298 0 0 0-3.092-3.074c-.738-.194-13.966-.185-14.686.008Zm14.449 2.899c.132.097.325.29.421.422.185.237.185.307.185 7.08 0 6.771 0 6.841-.185 7.079-.096.131-.29.324-.421.421-.237.185-.308.185-7.08.185s-6.842 0-7.08-.185a2.399 2.399 0 0 1-.42-.421c-.185-.238-.185-.334-.212-6.843-.017-3.636 0-6.728.027-6.886.061-.351.43-.8.79-.957.211-.097 1.537-.115 7-.097 6.65.018 6.738.018 6.975.202ZM27.575 24.54c-1.484.396-2.644 1.582-3.039 3.083-.193.747-.193 13.887 0 14.634a4.298 4.298 0 0 0 3.074 3.092c.782.202 13.887.202 14.669 0a4.298 4.298 0 0 0 3.074-3.092c.202-.764.193-13.887 0-14.651a4.298 4.298 0 0 0-3.092-3.074c-.738-.194-13.966-.185-14.686.008Zm14.449 2.899c.132.097.325.29.422.422.184.237.184.307.184 7.08 0 6.771 0 6.841-.184 7.079a2.4 2.4 0 0 1-.422.421c-.237.185-.308.185-7.08.185s-6.842 0-7.08-.185a2.4 2.4 0 0 1-.42-.421c-.185-.238-.185-.334-.211-6.843-.018-3.636 0-6.728.026-6.886.061-.351.43-.8.79-.957.211-.097 1.538-.115 7-.097 6.65.018 6.738.018 6.975.202Z" />
</svg>