<svg viewBox="0 0 15 16" fill="none" xmlns="http://www.w3.org/2000/svg">
  <g id="military">
    <g id="military_2">
      <path fill-rule="evenodd" clip-rule="evenodd"
        d="M4.17625 6.08167C3.94667 6.15125 3.71083 6.2275 3.46833 6.31083C3.37974 6.34115 3.28352 6.34075 3.19519 6.30969C3.10686 6.27863 3.03156 6.21872 2.98145 6.13962C2.93133 6.06052 2.90932 5.96685 2.91896 5.87372C2.9286 5.78058 2.96933 5.6934 3.03458 5.62625L3.0375 5.62292C3.06681 5.59209 3.09488 5.56012 3.12167 5.52708C3.17875 5.45833 3.255 5.36042 3.33083 5.24375C3.49083 4.99708 3.61125 4.72333 3.61125 4.48792C3.61125 2.29667 5.34125 0.5 7.5 0.5C9.65875 0.5 11.3888 2.29667 11.3888 4.48792C11.3888 4.72333 11.5096 4.99708 11.6692 5.24375C11.752 5.37087 11.8443 5.49149 11.9454 5.60458L11.9483 5.6075C11.9546 5.61458 11.9592 5.62 11.9625 5.62292L11.9654 5.62625C12.0307 5.6934 12.0714 5.78058 12.081 5.87372C12.0907 5.96685 12.0687 6.06052 12.0186 6.13962C11.9684 6.21872 11.8931 6.27863 11.8048 6.30969C11.7165 6.34075 11.6203 6.34115 11.5317 6.31083C11.2892 6.2275 11.0533 6.15125 10.8237 6.08167C10.8581 6.53917 10.7977 6.99884 10.6462 7.43191C10.4948 7.86498 10.2556 8.26212 9.94354 8.59847C9.63152 8.93482 9.25343 9.20314 8.83293 9.38663C8.41243 9.57012 7.95858 9.66482 7.49979 9.66482C7.041 9.66482 6.58715 9.57012 6.16665 9.38663C5.74615 9.20314 5.36806 8.93482 5.05604 8.59847C4.74402 8.26212 4.50479 7.86498 4.35333 7.43191C4.20188 6.99884 4.14145 6.53917 4.17583 6.08167H4.17625ZM4.44458 4.48792C4.44458 2.73458 5.82375 1.33333 7.5 1.33333C9.17667 1.33333 10.5554 2.73458 10.5554 4.48792C10.5554 4.7325 10.6146 4.96708 10.6971 5.17667C9.70667 4.89875 8.795 4.73917 7.88875 4.70417C7.58535 4.69215 7.28156 4.6941 6.97833 4.71C6.11583 4.75542 5.245 4.9125 4.3025 5.17667C4.39254 4.95801 4.44102 4.72436 4.44458 4.48792ZM5.04792 5.84292C4.9759 6.20544 4.98516 6.57942 5.07503 6.93794C5.16491 7.29645 5.33316 7.63058 5.56767 7.91626C5.80218 8.20194 6.09712 8.43207 6.43125 8.59008C6.76538 8.74808 7.13039 8.83004 7.5 8.83004C7.86961 8.83004 8.23462 8.74808 8.56875 8.59008C8.90288 8.43207 9.19782 8.20194 9.43233 7.91626C9.66684 7.63058 9.83509 7.29645 9.92496 6.93794C10.0148 6.57942 10.0241 6.20544 9.95208 5.84292C9.28125 5.68042 8.65458 5.58208 8.04042 5.54583C7.70505 5.52594 7.36885 5.52455 7.03333 5.54167C6.39583 5.57417 5.74583 5.67375 5.04792 5.84292ZM12.0833 8L14.1667 6.80958V1.75H15V11.3333L12.0833 10.0833V8ZM14.1667 7.76917L12.9167 8.48375V9.53375L14.1667 10.0696V7.76917Z"
        fill="#9D9C9C" />
      <path
        d="M2.55917 10.2242C2.60935 10.2004 2.65429 10.1669 2.69134 10.1256C2.7284 10.0843 2.75682 10.036 2.77494 9.98349C2.79306 9.93103 2.80052 9.87547 2.79687 9.82008C2.79322 9.7647 2.77854 9.71059 2.7537 9.66096C2.72885 9.61132 2.69434 9.56715 2.65219 9.53104C2.61003 9.49492 2.56109 9.4676 2.50823 9.45066C2.45536 9.43373 2.39965 9.42753 2.34436 9.43242C2.28907 9.43731 2.23531 9.45321 2.18625 9.47917L0.646667 10.25C0.548755 10.3 0.474581 10.3867 0.44031 10.4912C0.40604 10.5956 0.41445 10.7094 0.463708 10.8077C0.512966 10.906 0.599079 10.9809 0.70328 11.0159C0.807482 11.051 0.921325 11.0435 1.02 10.995L2.55917 10.2242ZM2.54417 12.8138C2.5936 12.715 2.68022 12.6399 2.78499 12.605C2.88976 12.5701 3.00411 12.5782 3.10292 12.6275L3.75 12.9508L4.39708 12.6275C4.4462 12.601 4.50013 12.5847 4.55569 12.5794C4.61124 12.5742 4.66728 12.5801 4.72049 12.597C4.77369 12.6138 4.82297 12.6411 4.86541 12.6774C4.90785 12.7136 4.94257 12.758 4.96753 12.8079C4.99248 12.8578 5.00716 12.9122 5.01068 12.9679C5.01421 13.0236 5.00651 13.0794 4.98805 13.1321C4.96959 13.1848 4.94074 13.2332 4.90321 13.2745C4.86568 13.3158 4.82024 13.3491 4.76958 13.3725L3.93625 13.7892C3.87842 13.8181 3.81465 13.8331 3.75 13.8331C3.68535 13.8331 3.62158 13.8181 3.56375 13.7892L2.73042 13.3725C2.63166 13.3231 2.55657 13.2364 2.52165 13.1317C2.48673 13.0269 2.49482 12.9126 2.54417 12.8138Z"
        fill="#9D9C9C" />
      <path fill-rule="evenodd" clip-rule="evenodd"
        d="M15 13.2083C15 11.5167 10.4483 10.4513 7.27917 10.5029C4.27458 10.5517 0 11.5167 0 13.2083V15.5H15V13.2083ZM7.29292 11.3358C8.54917 11.3154 10.0429 11.4817 11.3429 11.7962L10.4817 14.6667H0.833333V13.2083C0.833333 13.1717 0.853333 13.0113 1.20833 12.75C1.55208 12.4975 2.08333 12.25 2.765 12.0337C4.11917 11.6037 5.85667 11.3596 7.29292 11.3358ZM12.1462 12.0179L11.3517 14.6667H14.1667V13.2083C14.1667 13.1908 14.1533 13.025 13.7583 12.745C13.3946 12.4879 12.8429 12.2367 12.1462 12.0179Z"
        fill="#9D9C9C" />
    </g>
  </g>
</svg>