<svg width="14" height="16" viewBox="0 0 14 16" fill="none" xmlns="http://www.w3.org/2000/svg">
  <g id="trident">
    <g id="trident_2">
      <path
        d="M2.21437 0.557124C1.92629 0.630995 1.68976 0.763964 1.4775 0.96785C1.26219 1.1806 1.1318 1.40812 1.05296 1.70066C0.995341 1.93114 0.995341 2.01683 1.00444 6.46981C1.01354 10.6923 1.01657 11.0173 1.06812 11.2242C1.26826 12.0545 1.65034 12.7312 2.22347 13.2808C2.47819 13.526 2.90273 13.8215 3.20597 13.9693C3.62142 14.1731 6.98133 15.5147 7.04198 15.4999C7.13296 15.4822 10.5808 14.0756 10.8022 13.9663C11.3025 13.7211 11.8635 13.2542 12.2062 12.8021C12.5337 12.3677 12.7884 11.8122 12.9309 11.2242C12.9825 11.0173 12.9855 10.6923 12.9946 6.47572C13.0067 1.47313 13.0158 1.75975 12.8157 1.36085C12.6974 1.13037 12.4185 0.843746 12.1789 0.710777C12.0849 0.657589 11.9029 0.589627 11.7726 0.557124C11.5451 0.498026 11.4299 0.498026 6.9874 0.500981C2.59646 0.500981 2.42664 0.503936 2.21437 0.557124ZM11.8211 0.935347C12.1637 1.07127 12.4154 1.31652 12.5549 1.65042L12.6247 1.81294V10.9435L12.558 11.2183C12.2941 12.2879 11.5876 13.1833 10.6202 13.656C10.408 13.7595 7.04502 15.1246 6.99953 15.1246C6.93585 15.1246 3.53651 13.7358 3.30604 13.6147C2.48426 13.1892 1.82926 12.4298 1.54724 11.5788C1.3653 11.0439 1.37743 11.3838 1.36833 6.46981C1.35923 2.46597 1.36226 1.94887 1.40472 1.78635C1.48963 1.46722 1.68673 1.20424 1.97178 1.03877C2.29928 0.843746 2.0021 0.855565 7.06018 0.861475L11.6543 0.867385L11.8211 0.935347Z"
        fill="#9D9C9C" />
      <path
        d="M6.86309 2.46009C6.75696 2.56351 6.49617 3.1072 6.42036 3.37905C6.33545 3.68636 6.32636 4.23005 6.40217 4.52849C6.46888 4.78852 6.58714 5.07514 6.71754 5.29085L6.82064 5.46223L6.80244 7.87045L6.72057 8.09797C6.6205 8.37278 6.47191 8.62098 6.14441 9.05239C6.01098 9.23264 5.84723 9.46017 5.78052 9.56063L5.65922 9.74679L5.44392 9.72906C5.06184 9.69951 4.91325 9.62268 4.81318 9.40993C4.67369 9.10854 4.83137 8.76577 5.14674 8.68304C5.20739 8.66826 5.29533 8.64758 5.34082 8.63871C5.38631 8.62985 5.43786 8.59144 5.45605 8.55598C5.5076 8.44665 5.17707 5.66316 5.06184 5.21993C4.88292 4.52554 4.54936 3.86956 4.09753 3.31995C3.72151 2.86195 3.61234 2.79399 3.48195 2.92105C3.4213 2.98015 3.4213 3.01856 3.4213 7.17605C3.4213 11.3336 3.4213 11.372 3.48195 11.4311C3.53956 11.4872 3.58202 11.4902 4.51297 11.4902C5.26804 11.4902 5.48334 11.499 5.48334 11.5256C5.48334 11.6113 5.79265 12.1727 5.96853 12.4121C6.16867 12.6839 6.64476 13.1715 6.8449 13.3074C6.93587 13.3665 6.98742 13.3842 7.04807 13.3695C7.15724 13.3429 7.75159 12.7726 7.99115 12.4653C8.17007 12.2348 8.51576 11.6172 8.51576 11.5286C8.51576 11.499 8.71893 11.4902 9.48614 11.4902C10.4171 11.4902 10.4595 11.4872 10.5172 11.4311C10.5778 11.372 10.5778 11.3336 10.5778 7.17605C10.5778 3.01856 10.5778 2.98015 10.5172 2.92105C10.3868 2.79399 10.2806 2.86195 9.91371 3.30518C9.49523 3.81342 9.20109 4.3512 9.00398 4.97763C8.87359 5.39723 8.84023 5.61293 8.66738 7.13173C8.55215 8.13639 8.51879 8.50574 8.54305 8.55598C8.56125 8.59144 8.6128 8.62985 8.65828 8.63871C8.98579 8.70372 9.09799 8.77464 9.18593 8.96079C9.2587 9.11445 9.2587 9.25628 9.18593 9.40993C9.08586 9.62268 8.93727 9.69951 8.55518 9.72906L8.33988 9.74679L8.21858 9.56063C8.15187 9.46017 7.98812 9.23264 7.85469 9.05239C7.52719 8.62098 7.3786 8.37278 7.27853 8.09797L7.19666 7.87045L7.17846 5.46223L7.28157 5.29085C7.53326 4.87421 7.64849 4.46644 7.64849 3.9848C7.64849 3.56225 7.57571 3.26972 7.36041 2.83536C7.19666 2.50737 7.09962 2.38917 6.99955 2.38917C6.9662 2.38917 6.90251 2.42168 6.86309 2.46009ZM7.12085 3.16335C7.22698 3.43519 7.30279 3.76909 7.30279 3.9848C7.30279 4.06458 7.2846 4.2271 7.26034 4.34529C7.21182 4.58464 7.04201 5.04855 6.99955 5.04855C6.9571 5.04855 6.78728 4.58464 6.73876 4.34529C6.68418 4.07049 6.68418 3.89911 6.73876 3.62431C6.78728 3.38496 6.9571 2.92105 6.99955 2.92105C7.01471 2.92105 7.0693 3.03038 7.12085 3.16335ZM4.0672 3.87842C4.34619 4.27438 4.61607 4.89194 4.7404 5.40313C4.77982 5.56565 5.08913 8.10979 5.08913 8.2664C5.08913 8.30481 5.04364 8.33732 4.9466 8.37277C4.75253 8.44665 4.5342 8.66531 4.46445 8.85737L4.40683 9.00807H3.78519V6.25118L3.78822 3.49725L3.85493 3.58294C3.89132 3.63022 3.98836 3.76318 4.0672 3.87842ZM10.2139 6.26005V9.00807H9.58621L9.54982 8.89283C9.4922 8.69781 9.29813 8.49097 9.09192 8.39641C8.97669 8.34323 8.90998 8.29595 8.90998 8.26344C8.90998 8.1157 9.21928 5.56565 9.2587 5.40313C9.36787 4.95104 9.58014 4.43394 9.8106 4.06458C9.92584 3.87842 10.1866 3.51202 10.2048 3.51202C10.2109 3.51202 10.2139 4.74715 10.2139 6.26005ZM7.12995 8.6328C7.19666 8.75395 7.34222 8.97557 7.46048 9.12922C7.68488 9.42766 7.96993 9.82361 7.96993 9.8443C7.96993 9.85316 7.89412 9.89749 7.79708 9.94181C7.58178 10.0482 7.22395 10.3732 7.10569 10.5712C7.05717 10.6539 7.00865 10.7219 6.99955 10.7219C6.99045 10.7219 6.94497 10.6539 6.89342 10.5712C6.77515 10.3732 6.41733 10.0482 6.20203 9.94181C6.10499 9.89749 6.02918 9.85316 6.02918 9.8443C6.02918 9.82361 6.31423 9.42766 6.53862 9.12922C6.65689 8.97557 6.80244 8.75395 6.86916 8.6328C6.93284 8.51461 6.99045 8.4171 6.99955 8.4171C7.00865 8.4171 7.06627 8.51461 7.12995 8.6328ZM4.45839 9.50449C4.57665 9.82361 4.88596 10.0393 5.27107 10.0659C5.38934 10.0718 5.48334 10.0925 5.48334 10.1073C5.48334 10.125 5.45908 10.2107 5.43179 10.3023C5.39844 10.4146 5.38024 10.5801 5.38024 10.8017L5.37721 11.1356H3.78519V9.36265H4.40683L4.45839 9.50449ZM10.2139 11.1356H8.6219L8.61886 10.8017C8.61886 10.5801 8.60067 10.4146 8.56731 10.3023C8.54002 10.2107 8.51576 10.125 8.51576 10.1073C8.51576 10.0925 8.60977 10.0718 8.72803 10.0659C9.11315 10.0393 9.42245 9.82361 9.54072 9.50449L9.59227 9.36265H10.2139V11.1356ZM6.10802 10.3023C6.34152 10.453 6.54772 10.6717 6.66295 10.8933C6.7145 10.9937 6.75696 11.0883 6.75696 11.106C6.75696 11.1238 6.58108 11.1356 6.25661 11.1356H5.75929L5.73807 11.0292C5.69258 10.7899 5.80175 10.19 5.88969 10.19C5.91091 10.19 6.00795 10.2403 6.10802 10.3023ZM8.19736 10.3437C8.25497 10.5387 8.28833 10.8844 8.26104 11.0292L8.23981 11.1356H7.74249C7.41803 11.1356 7.24215 11.1238 7.24215 11.106C7.24215 11.0292 7.44229 10.7012 7.56965 10.5653C7.7152 10.4146 8.03664 10.19 8.10942 10.19C8.13064 10.19 8.17007 10.2609 8.19736 10.3437ZM6.81761 12.7933L6.75089 12.7489C6.55379 12.613 6.15048 12.0841 5.9564 11.7029L5.84723 11.4902H6.81761V12.7933ZM8.0427 11.7029C7.84863 12.0782 7.35435 12.7223 7.22395 12.7726C7.18756 12.7873 7.1815 12.6869 7.1815 12.1402V11.4902H8.15187L8.0427 11.7029Z"
        fill="#9D9C9C" />
      <path
        d="M2.21437 0.557124C1.92629 0.630995 1.68976 0.763964 1.4775 0.96785C1.26219 1.1806 1.1318 1.40812 1.05296 1.70066C0.995341 1.93114 0.995341 2.01683 1.00444 6.46981C1.01354 10.6923 1.01657 11.0173 1.06812 11.2242C1.26826 12.0545 1.65034 12.7312 2.22347 13.2808C2.47819 13.526 2.90273 13.8215 3.20597 13.9693C3.62142 14.1731 6.98133 15.5147 7.04198 15.4999C7.13296 15.4822 10.5808 14.0756 10.8022 13.9663C11.3025 13.7211 11.8635 13.2542 12.2062 12.8021C12.5337 12.3677 12.7884 11.8122 12.9309 11.2242C12.9825 11.0173 12.9855 10.6923 12.9946 6.47572C13.0067 1.47313 13.0158 1.75975 12.8157 1.36085C12.6974 1.13037 12.4185 0.843746 12.1789 0.710777C12.0849 0.657589 11.9029 0.589627 11.7726 0.557124C11.5451 0.498026 11.4299 0.498026 6.9874 0.500981C2.59646 0.500981 2.42664 0.503936 2.21437 0.557124ZM11.8211 0.935347C12.1637 1.07127 12.4154 1.31652 12.5549 1.65042L12.6247 1.81294V10.9435L12.558 11.2183C12.2941 12.2879 11.5876 13.1833 10.6202 13.656C10.408 13.7595 7.04502 15.1246 6.99953 15.1246C6.93585 15.1246 3.53651 13.7358 3.30604 13.6147C2.48426 13.1892 1.82926 12.4298 1.54724 11.5788C1.3653 11.0439 1.37743 11.3838 1.36833 6.46981C1.35923 2.46597 1.36226 1.94887 1.40472 1.78635C1.48963 1.46722 1.68673 1.20424 1.97178 1.03877C2.29928 0.843746 2.0021 0.855565 7.06018 0.861475L11.6543 0.867385L11.8211 0.935347Z"
        stroke="#9D9C9C" stroke-width="0.4" />
      <path
        d="M6.86309 2.46009C6.75696 2.56351 6.49617 3.1072 6.42036 3.37905C6.33545 3.68636 6.32636 4.23005 6.40217 4.52849C6.46888 4.78852 6.58714 5.07514 6.71754 5.29085L6.82064 5.46223L6.80244 7.87045L6.72057 8.09797C6.6205 8.37278 6.47191 8.62098 6.14441 9.05239C6.01098 9.23264 5.84723 9.46017 5.78052 9.56063L5.65922 9.74679L5.44392 9.72906C5.06184 9.69951 4.91325 9.62268 4.81318 9.40993C4.67369 9.10854 4.83137 8.76577 5.14674 8.68304C5.20739 8.66826 5.29533 8.64758 5.34082 8.63871C5.38631 8.62985 5.43786 8.59144 5.45605 8.55598C5.5076 8.44665 5.17707 5.66316 5.06184 5.21993C4.88292 4.52554 4.54936 3.86956 4.09753 3.31995C3.72151 2.86195 3.61234 2.79399 3.48195 2.92105C3.4213 2.98015 3.4213 3.01856 3.4213 7.17605C3.4213 11.3336 3.4213 11.372 3.48195 11.4311C3.53956 11.4872 3.58202 11.4902 4.51297 11.4902C5.26804 11.4902 5.48334 11.499 5.48334 11.5256C5.48334 11.6113 5.79265 12.1727 5.96853 12.4121C6.16867 12.6839 6.64476 13.1715 6.8449 13.3074C6.93587 13.3665 6.98742 13.3842 7.04807 13.3695C7.15724 13.3429 7.75159 12.7726 7.99115 12.4653C8.17007 12.2348 8.51576 11.6172 8.51576 11.5286C8.51576 11.499 8.71893 11.4902 9.48614 11.4902C10.4171 11.4902 10.4595 11.4872 10.5172 11.4311C10.5778 11.372 10.5778 11.3336 10.5778 7.17605C10.5778 3.01856 10.5778 2.98015 10.5172 2.92105C10.3868 2.79399 10.2806 2.86195 9.91371 3.30518C9.49523 3.81342 9.20109 4.3512 9.00398 4.97763C8.87359 5.39723 8.84023 5.61293 8.66738 7.13173C8.55215 8.13639 8.51879 8.50574 8.54305 8.55598C8.56125 8.59144 8.6128 8.62985 8.65828 8.63871C8.98579 8.70372 9.09799 8.77464 9.18593 8.96079C9.2587 9.11445 9.2587 9.25628 9.18593 9.40993C9.08586 9.62268 8.93727 9.69951 8.55518 9.72906L8.33988 9.74679L8.21858 9.56063C8.15187 9.46017 7.98812 9.23264 7.85469 9.05239C7.52719 8.62098 7.3786 8.37278 7.27853 8.09797L7.19666 7.87045L7.17846 5.46223L7.28157 5.29085C7.53326 4.87421 7.64849 4.46644 7.64849 3.9848C7.64849 3.56225 7.57571 3.26972 7.36041 2.83536C7.19666 2.50737 7.09962 2.38917 6.99955 2.38917C6.9662 2.38917 6.90251 2.42168 6.86309 2.46009ZM7.12085 3.16335C7.22698 3.43519 7.30279 3.76909 7.30279 3.9848C7.30279 4.06458 7.2846 4.2271 7.26034 4.34529C7.21182 4.58464 7.04201 5.04855 6.99955 5.04855C6.9571 5.04855 6.78728 4.58464 6.73876 4.34529C6.68418 4.07049 6.68418 3.89911 6.73876 3.62431C6.78728 3.38496 6.9571 2.92105 6.99955 2.92105C7.01471 2.92105 7.0693 3.03038 7.12085 3.16335ZM4.0672 3.87842C4.34619 4.27438 4.61607 4.89194 4.7404 5.40313C4.77982 5.56565 5.08913 8.10979 5.08913 8.2664C5.08913 8.30481 5.04364 8.33732 4.9466 8.37277C4.75253 8.44665 4.5342 8.66531 4.46445 8.85737L4.40683 9.00807H3.78519V6.25118L3.78822 3.49725L3.85493 3.58294C3.89132 3.63022 3.98836 3.76318 4.0672 3.87842ZM10.2139 6.26005V9.00807H9.58621L9.54982 8.89283C9.4922 8.69781 9.29813 8.49097 9.09192 8.39641C8.97669 8.34323 8.90998 8.29595 8.90998 8.26344C8.90998 8.1157 9.21928 5.56565 9.2587 5.40313C9.36787 4.95104 9.58014 4.43394 9.8106 4.06458C9.92584 3.87842 10.1866 3.51202 10.2048 3.51202C10.2109 3.51202 10.2139 4.74715 10.2139 6.26005ZM7.12995 8.6328C7.19666 8.75395 7.34222 8.97557 7.46048 9.12922C7.68488 9.42766 7.96993 9.82361 7.96993 9.8443C7.96993 9.85316 7.89412 9.89749 7.79708 9.94181C7.58178 10.0482 7.22395 10.3732 7.10569 10.5712C7.05717 10.6539 7.00865 10.7219 6.99955 10.7219C6.99045 10.7219 6.94497 10.6539 6.89342 10.5712C6.77515 10.3732 6.41733 10.0482 6.20203 9.94181C6.10499 9.89749 6.02918 9.85316 6.02918 9.8443C6.02918 9.82361 6.31423 9.42766 6.53862 9.12922C6.65689 8.97557 6.80244 8.75395 6.86916 8.6328C6.93284 8.51461 6.99045 8.4171 6.99955 8.4171C7.00865 8.4171 7.06627 8.51461 7.12995 8.6328ZM4.45839 9.50449C4.57665 9.82361 4.88596 10.0393 5.27107 10.0659C5.38934 10.0718 5.48334 10.0925 5.48334 10.1073C5.48334 10.125 5.45908 10.2107 5.43179 10.3023C5.39844 10.4146 5.38024 10.5801 5.38024 10.8017L5.37721 11.1356H3.78519V9.36265H4.40683L4.45839 9.50449ZM10.2139 11.1356H8.6219L8.61886 10.8017C8.61886 10.5801 8.60067 10.4146 8.56731 10.3023C8.54002 10.2107 8.51576 10.125 8.51576 10.1073C8.51576 10.0925 8.60977 10.0718 8.72803 10.0659C9.11315 10.0393 9.42245 9.82361 9.54072 9.50449L9.59227 9.36265H10.2139V11.1356ZM6.10802 10.3023C6.34152 10.453 6.54772 10.6717 6.66295 10.8933C6.7145 10.9937 6.75696 11.0883 6.75696 11.106C6.75696 11.1238 6.58108 11.1356 6.25661 11.1356H5.75929L5.73807 11.0292C5.69258 10.7899 5.80175 10.19 5.88969 10.19C5.91091 10.19 6.00795 10.2403 6.10802 10.3023ZM8.19736 10.3437C8.25497 10.5387 8.28833 10.8844 8.26104 11.0292L8.23981 11.1356H7.74249C7.41803 11.1356 7.24215 11.1238 7.24215 11.106C7.24215 11.0292 7.44229 10.7012 7.56965 10.5653C7.7152 10.4146 8.03664 10.19 8.10942 10.19C8.13064 10.19 8.17007 10.2609 8.19736 10.3437ZM6.81761 12.7933L6.75089 12.7489C6.55379 12.613 6.15048 12.0841 5.9564 11.7029L5.84723 11.4902H6.81761V12.7933ZM8.0427 11.7029C7.84863 12.0782 7.35435 12.7223 7.22395 12.7726C7.18756 12.7873 7.1815 12.6869 7.1815 12.1402V11.4902H8.15187L8.0427 11.7029Z"
        stroke="#9D9C9C" stroke-width="0.4" />
    </g>
  </g>
</svg>