<svg width="40" height="40" viewBox="0 0 40 40" fill="none"
  xmlns="http://www.w3.org/2000/svg">
  <path d="M17.5352 30H21.7676V21.5684H25.581L26 17.3789H21.7676V15.2632C21.7676 14.984 21.8791 14.7162 22.0775 14.5188C22.2759 14.3214 22.5451 14.2105 22.8257 14.2105H26V10H22.8257C21.4226 10 20.0769 10.5545 19.0848 11.5415C18.0926 12.5286 17.5352 13.8673 17.5352 15.2632V17.3789H15.419L15 21.5684H17.5352V30Z" fill="#4F4C4C"/>
  <path d="M20 0C8.96667 0 0 8.96667 0 20C0 31.0333 8.96667 40 20 40C31.0333 40 40 31.0333 40 20C40 8.96667 31.0333 0 20 0ZM20 1.66667C30.1333 1.66667 38.3333 9.86667 38.3333 20C38.3333 30.1333 30.1333 38.3333 20 38.3333C9.86667 38.3333 1.66667 30.1333 1.66667 20C1.66667 9.86667 9.86667 1.66667 20 1.66667Z" fill="#4F4C4C"/>
</svg>
