<svg viewBox="0 0 40 40" fill="none" xmlns="http://www.w3.org/2000/svg">
  <path
    d="M17.4075 22.5925C18.0951 23.28 19.0276 23.6663 20 23.6663C20.9724 23.6663 21.9049 23.28 22.5925 22.5925C23.28 21.9049 23.6663 20.9724 23.6663 20C23.6663 19.0276 23.28 18.0951 22.5925 17.4075C21.9049 16.72 20.9724 16.3337 20 16.3337C19.0276 16.3337 18.0951 16.72 17.4075 17.4075C16.72 18.0951 16.3337 19.0276 16.3337 20C16.3337 20.9724 16.72 21.9049 17.4075 22.5925Z"
    fill="#4F4C4C" />
  <path fill-rule="evenodd" clip-rule="evenodd"
    d="M24.444 11.046C23.2846 10.9932 22.937 10.9822 20 10.9822C17.0619 10.9822 16.7154 10.9932 15.5549 11.046C14.4824 11.0944 13.9005 11.2737 13.5122 11.4244C12.9996 11.6246 12.6322 11.8622 12.2472 12.2472C11.8633 12.6322 11.6246 12.9996 11.4244 13.5122C11.2737 13.9005 11.0955 14.4824 11.046 15.556C10.9932 16.7154 10.9822 17.063 10.9822 20C10.9822 22.9381 10.9932 23.2846 11.046 24.4451C11.0944 25.5176 11.2737 26.0995 11.4244 26.4878C11.6007 26.9657 11.8818 27.3979 12.2472 27.7528C12.6021 28.1182 13.0343 28.3993 13.5122 28.5756C13.9005 28.7252 14.4824 28.9045 15.556 28.954C16.7143 29.0068 17.063 29.0178 20 29.0178C22.9381 29.0178 23.2857 29.0068 24.4451 28.954C25.5176 28.9056 26.0995 28.7252 26.4878 28.5756C27.0004 28.3754 27.3678 28.1378 27.7528 27.7528C28.1181 27.3979 28.3992 26.9656 28.5756 26.4878C28.7252 26.0995 28.9045 25.5176 28.954 24.444C29.0068 23.2846 29.0178 22.937 29.0178 20C29.0178 17.0619 29.0068 16.7154 28.954 15.5549C28.9056 14.4824 28.7252 13.9005 28.5756 13.5122C28.3754 12.9996 28.1378 12.6322 27.7528 12.2472C27.3678 11.8633 27.0004 11.6246 26.4878 11.4244C26.0995 11.2737 25.5176 11.0955 24.444 11.046ZM17.8384 14.7815C18.5237 14.4976 19.2582 14.3515 20 14.3515C21.4981 14.3515 22.9348 14.9466 23.9941 16.0059C25.0534 17.0652 25.6485 18.5019 25.6485 20C25.6485 21.4981 25.0534 22.9348 23.9941 23.9941C22.9348 25.0534 21.4981 25.6485 20 25.6485C19.2582 25.6485 18.5237 25.5024 17.8384 25.2185C17.1531 24.9347 16.5304 24.5186 16.0059 23.9941C15.4814 23.4696 15.0653 22.8469 14.7815 22.1616C14.4976 21.4763 14.3515 20.7418 14.3515 20C14.3515 19.2582 14.4976 18.5237 14.7815 17.8384C15.0653 17.1531 15.4814 16.5304 16.0059 16.0059C16.5304 15.4814 17.1531 15.0653 17.8384 14.7815ZM27.0913 14.6333C27.1577 14.4732 27.1918 14.3015 27.1918 14.1282C27.1918 13.7781 27.0527 13.4424 26.8052 13.1948C26.5576 12.9473 26.2219 12.8082 25.8718 12.8082C25.5217 12.8082 25.186 12.9473 24.9384 13.1948C24.6909 13.4424 24.5518 13.7781 24.5518 14.1282C24.5518 14.3015 24.5859 14.4732 24.6523 14.6333C24.7186 14.7935 24.8158 14.939 24.9384 15.0616C25.061 15.1842 25.2065 15.2814 25.3667 15.3477C25.5268 15.4141 25.6985 15.4482 25.8718 15.4482C26.0451 15.4482 26.2168 15.4141 26.3769 15.3477C26.5371 15.2814 26.6826 15.1842 26.8052 15.0616C26.9278 14.939 27.025 14.7935 27.0913 14.6333Z"
    fill="#4F4C4C" />
  <path fill-rule="evenodd" clip-rule="evenodd"
    d="M20 40C31.0457 40 40 31.0457 40 20C40 8.9543 31.0457 0 20 0C8.9543 0 0 8.9543 0 20C0 31.0457 8.9543 40 20 40ZM15.4647 9.066C16.6384 9.0132 17.0124 9 20 9C22.9876 9 23.3616 9.0132 24.5353 9.066C25.7057 9.1199 26.5054 9.3058 27.205 9.5775C27.9393 9.85343 28.6045 10.2863 29.1542 10.8458C29.7137 11.3956 30.1465 12.0608 30.4225 12.795C30.6942 13.4946 30.8801 14.2943 30.934 15.4647C30.9868 16.6384 31 17.0124 31 20C31 22.9876 30.9868 23.3616 30.934 24.5353C30.8801 25.7057 30.6942 26.5054 30.4225 27.205C30.1465 27.9392 29.7137 28.6045 29.1542 29.1542C28.6045 29.7137 27.9392 30.1465 27.205 30.4225C26.5054 30.6942 25.7057 30.8801 24.5353 30.934C23.3616 30.9868 22.9876 31 20 31C17.0124 31 16.6384 30.9868 15.4647 30.934C14.2943 30.8801 13.4946 30.6942 12.795 30.4225C12.0608 30.1465 11.3956 29.7137 10.8458 29.1542C10.2863 28.6044 9.85349 27.9392 9.5775 27.205C9.3058 26.5054 9.1199 25.7057 9.066 24.5353C9.0121 23.3616 9 22.9876 9 20C9 17.0124 9.0121 16.6384 9.066 15.4647C9.1199 14.2943 9.3058 13.4946 9.5775 12.795C9.85346 12.0608 10.2863 11.3956 10.8458 10.8458C11.3955 10.2863 12.0607 9.85343 12.795 9.5775C13.4946 9.3058 14.2943 9.1199 15.4647 9.066Z"
    fill="#4F4C4C" />
</svg>