<svg width="40" height="40" viewBox="0 0 40 40" fill="none"
  xmlns="http://www.w3.org/2000/svg">
  <path fill-rule="evenodd" clip-rule="evenodd" d="M27.655 28.6888V28.6865L27.675 28.6371L31 11.2909V11.2358C31 10.8033 30.8448 10.4258 30.5099 10.1998C30.2161 10.0014 29.878 9.98759 29.6407 10.0059C29.4199 10.0266 29.2019 10.0728 28.991 10.1436C28.9011 10.1736 28.8123 10.2073 28.7249 10.2446L28.7105 10.2503L10.1727 17.7751L10.1672 17.7773C10.1108 17.7973 10.0557 17.8206 10.002 17.8473C9.87016 17.9086 9.74367 17.9815 9.62392 18.0653C9.38555 18.2351 8.93208 18.6343 9.00859 19.2676C9.07178 19.793 9.42103 20.1257 9.65719 20.299C9.79658 20.4001 9.94645 20.4847 10.104 20.5514L10.1395 20.5674L10.1506 20.5709L10.1583 20.5743L13.4024 21.7044C13.3913 21.9143 13.4113 22.1288 13.4656 22.3411L15.0899 28.7186C15.1786 29.0662 15.3704 29.3764 15.6382 29.6055C15.906 29.8346 16.2364 29.9711 16.5831 29.9959C16.9298 30.0207 17.2752 29.9325 17.571 29.7438C17.8667 29.555 18.0979 29.2751 18.232 28.9434L20.7688 26.1373L25.1249 29.5928L25.187 29.6203C25.5828 29.7993 25.952 29.8555 26.2902 29.8085C26.6283 29.7603 26.8966 29.6134 27.0984 29.4471C27.3318 29.2513 27.5178 29.0018 27.6417 28.7186L27.6506 28.6991L27.6539 28.6922L27.655 28.6888ZM15.0733 21.9028C15.0553 21.8321 15.0596 21.7572 15.0855 21.6891C15.1114 21.621 15.1576 21.5633 15.2174 21.5242L26.217 14.2966C26.217 14.2966 26.8645 13.8893 26.8412 14.2966C26.8412 14.2966 26.9565 14.3678 26.6095 14.7016C26.2813 15.0194 18.7697 22.5235 18.0092 23.283C17.9669 23.3254 17.9372 23.3796 17.9238 23.439L16.6975 28.2803L15.0733 21.9017V21.9028Z" fill="#4F4C4C"/>
  <path d="M20 0C8.96667 0 0 8.96667 0 20C0 31.0333 8.96667 40 20 40C31.0333 40 40 31.0333 40 20C40 8.96667 31.0333 0 20 0ZM20 1.66667C30.1333 1.66667 38.3333 9.86667 38.3333 20C38.3333 30.1333 30.1333 38.3333 20 38.3333C9.86667 38.3333 1.66667 30.1333 1.66667 20C1.66667 9.86667 9.86667 1.66667 20 1.66667Z" fill="#4F4C4C"/>
</svg>
