<svg viewBox="0 0 40 40" fill="none" xmlns="http://www.w3.org/2000/svg">
  <path
    d="M20 0C8.955 0 0 8.955 0 20C0 31.045 8.955 40 20 40C31.045 40 40 31.045 40 20C40 8.955 31.045 0 20 0ZM29.8233 13.7017L26.54 29.1683C26.2983 30.265 25.645 30.5317 24.7333 30.015L19.7333 26.3317L17.3233 28.655C17.2052 28.8079 17.0537 28.9317 16.8804 29.0169C16.707 29.1021 16.5165 29.1465 16.3233 29.1467H16.315L16.67 24.0567L25.9367 15.6867C26.3367 15.3317 25.8467 15.13 25.315 15.485L13.8667 22.695L8.93333 21.155C7.86667 20.8167 7.83667 20.0883 9.15833 19.565L28.435 12.135C29.3317 11.8083 30.1117 12.3483 29.8217 13.7033L29.8233 13.7017Z"
    fill="#4F4C4C" />
</svg>