<svg width="40" height="40" viewBox="0 0 40 40" fill="none"
  xmlns="http://www.w3.org/2000/svg">
  <path d="M26.3246 10H29.6997L22.3281 18.4712L31 30H24.2116L18.8909 23.0096L12.8101 30H9.43025L17.3133 20.9375L9 10H15.9605L20.7649 16.3894L26.3246 10ZM25.1391 27.9712H27.0083L14.9422 11.9231H12.9344L25.1391 27.9712Z" fill="#4F4C4C"/>
  <path d="M20 0C8.96667 0 0 8.96667 0 20C0 31.0333 8.96667 40 20 40C31.0333 40 40 31.0333 40 20C40 8.96667 31.0333 0 20 0ZM20 1.66667C30.1333 1.66667 38.3333 9.86667 38.3333 20C38.3333 30.1333 30.1333 38.3333 20 38.3333C9.86667 38.3333 1.66667 30.1333 1.66667 20C1.66667 9.86667 9.86667 1.66667 20 1.66667Z" fill="#4F4C4C"/>
</svg>
