<svg width="56" height="60" viewBox="0 0 56 60" fill="none" xmlns="http://www.w3.org/2000/svg">
  <path
    d="M25.8462 0.151661C22.1038 0.982702 19.1019 3.56965 17.8904 7.00104C16.4635 11.0892 17.4596 15.3651 20.5692 18.3407L21.5115 19.2522H34.5154L35.6058 18.1397C37.2885 16.4508 38.2577 14.5608 38.6212 12.2822C39.2404 8.52909 37.5981 4.4409 34.5827 2.16224C33.6 1.42503 31.9442 0.607393 30.7596 0.2857C29.6288 -0.0225896 26.9635 -0.103013 25.8462 0.151661ZM28.7404 4.57494C28.9288 4.74919 29.0769 5.04408 29.0769 5.21833C29.0769 5.4596 29.1846 5.59364 29.4808 5.71427C30.3827 6.08958 31.2308 7.44337 31.2308 8.51568C31.2308 9.07865 30.7192 9.6014 30.1538 9.6014C29.6019 9.6014 29.0769 9.07865 29.0769 8.52909C29.0769 7.97953 28.5519 7.45678 28 7.45678C27.4481 7.45678 26.9231 7.97953 26.9231 8.52909C26.9231 9.09205 27.4481 9.6014 28.0135 9.6014C29.6692 9.6014 31.2308 11.1697 31.2308 12.8183C31.2308 13.904 30.3962 15.2578 29.4808 15.6331C29.1846 15.7538 29.0769 15.8878 29.0769 16.1291C29.0769 16.5848 28.5115 17.1076 28 17.1076C27.4885 17.1076 26.9231 16.5848 26.9231 16.1291C26.9231 15.8878 26.8154 15.7538 26.5192 15.6331C25.6173 15.2578 24.7692 13.904 24.7692 12.8317C24.7692 12.2688 25.2808 11.746 25.8462 11.746C26.3981 11.746 26.9231 12.2688 26.9231 12.8183C26.9231 13.3679 27.4481 13.8906 28 13.8906C28.5519 13.8906 29.0769 13.3679 29.0769 12.8183C29.0769 12.2554 28.5519 11.746 27.9865 11.746C26.3308 11.746 24.7692 10.1778 24.7692 8.52909C24.7692 7.44337 25.6038 6.08958 26.5192 5.71427C26.8154 5.59364 26.9231 5.4596 26.9231 5.21833C26.9231 4.7626 27.4885 4.23985 28 4.23985C28.2558 4.23985 28.5385 4.36048 28.7404 4.57494Z"
    fill="#9D9C9C" />
  <path
    d="M6.95962 12.9658C6.825 13.0462 5.30385 15.9414 3.56731 19.3996L0.403846 25.6861H55.5962L52.4327 19.3862C50.5212 15.5795 49.175 13.0462 49.0135 12.9524C48.8519 12.8719 47.2769 12.8183 44.7327 12.8183H40.7212L40.4788 13.8638C40.1962 15.1238 39.1462 17.2952 38.2981 18.3809L37.6788 19.1852L40.1154 19.2522C42.4846 19.3192 42.5654 19.3326 42.8212 19.6409C43.1712 20.0698 43.1442 20.673 42.7404 21.0617L42.4173 21.3968H13.5827L13.2596 21.0617C12.8558 20.673 12.8288 20.0698 13.1788 19.6409C13.4346 19.3326 13.5154 19.3192 15.8846 19.2522L18.3212 19.1852L17.7019 18.3809C16.8538 17.2952 15.8038 15.1238 15.5212 13.8638L15.2788 12.8183H11.2404C8.70962 12.8183 7.10769 12.8719 6.95962 12.9658Z"
    fill="#9D9C9C" />
  <path
    d="M0 59.3432L0.336538 59.6649L0.659615 60H55.3404L55.6635 59.6649L56 59.3432V27.8307H0V59.3432ZM24.7827 34.1171C25.725 34.4388 26.5058 34.9213 27.3538 35.7122L28 36.3153L28.6462 35.7122C29.8712 34.5728 31.2173 33.9428 32.7385 33.782C35.0269 33.5541 37.5038 34.8007 38.7962 36.8113C40.075 38.7951 40.0077 41.6635 38.6481 43.7277C38.3385 44.1968 36.1577 46.4621 33.2904 49.3037C28.8212 53.7404 28.4308 54.1023 28 54.1023C27.5692 54.1023 27.1788 53.7404 22.7096 49.3037C19.8423 46.4621 17.6615 44.1968 17.3519 43.7277C15.9923 41.6635 15.925 38.8085 17.2173 36.7979C18.0788 35.4441 19.8692 34.1841 21.4038 33.8624C22.2654 33.6882 23.8942 33.8088 24.7827 34.1171Z"
    fill="#9D9C9C" />
  <path
    d="M21.0673 36.1947C18.9538 37.0794 17.9038 39.4116 18.6442 41.6367C18.8596 42.3203 19.1827 42.6822 23.4365 46.9312L28 51.4885L32.5635 46.9312C36.8173 42.6822 37.1404 42.3203 37.3558 41.6367C37.9077 39.9746 37.5577 38.4063 36.3596 37.2C35.3769 36.2081 34.3942 35.8194 33.1154 35.9132C31.8096 35.9936 31.1231 36.369 29.6827 37.7496C28.0135 39.358 27.9865 39.358 26.3173 37.7496C24.85 36.3287 24.1769 35.9802 22.8173 35.9132C22.0365 35.873 21.7269 35.9266 21.0673 36.1947Z"
    fill="#9D9C9C" />
</svg>