<svg width="52" height="60" viewBox="0 0 52 60" fill="none" xmlns="http://www.w3.org/2000/svg">
  <path
    d="M23.907 0.0773017C20.4976 0.613523 16.993 2.54392 14.9419 5.02394C12.687 7.73186 11.5868 10.6945 11.5596 14.0861C11.5189 17.3838 12.4697 20.2526 14.4393 22.8265C16.3953 25.3869 19.0849 27.1833 22.3042 28.068C23.4995 28.3898 23.8391 28.43 25.9989 28.43C28.05 28.43 28.5254 28.3898 29.5306 28.1217C33.7415 26.9956 37.1102 24.3011 38.9576 20.5475C42.5708 13.2951 39.4873 4.71561 32.03 1.27039C30.2777 0.452656 28.5798 0.0638962 26.4743 0.0102741C25.5099 -0.016537 24.3417 0.0102741 23.907 0.0773017Z"
    fill="#9D9C9C" />
  <path
    d="M17.0338 31.6473C14.8061 31.9959 12.0214 32.9611 10.1741 34.0201C3.93925 37.5994 -0.0135486 44.1681 3.48976e-05 50.9513C3.48976e-05 52.4661 0.0407855 52.8012 0.312456 53.4715C0.910131 54.9595 2.2549 56.233 3.817 56.8229C4.57768 57.1044 4.78143 57.1178 11.5053 57.158L18.3921 57.1982L17.9031 56.4341C16.6127 54.4501 15.9199 52.2114 15.9063 50.0129C15.8927 48.4176 16.0829 47.5463 16.7213 46.2057C17.3462 44.9188 18.3378 43.9134 19.5739 43.3369C20.4025 42.9482 20.6198 42.908 21.7201 42.9214C23.1328 42.9214 24.1244 43.2163 25.279 43.9804L25.9989 44.4496L26.7188 43.9804C27.8734 43.2163 28.865 42.9214 30.2913 42.9214C31.4323 42.908 31.5817 42.9348 32.5461 43.404C36.594 45.388 37.314 51.4607 34.0947 56.4341L33.6057 57.1982L40.4925 57.158C47.2163 57.1178 47.4201 57.1044 48.1808 56.8229C49.7429 56.233 51.0876 54.9595 51.6853 53.4715C51.9706 52.7744 52.0113 52.4929 51.9977 50.8172C51.957 44.1413 48.0857 37.6664 42.0682 34.1675C39.8269 32.8672 37.0695 31.9288 34.5158 31.5937C32.8857 31.3658 18.5008 31.4194 17.0338 31.6473Z"
    fill="#9D9C9C" />
  <path
    d="M21.1088 45.817C20.3346 46.0314 19.7912 46.5409 19.3158 47.4926C18.9355 48.2702 18.8675 48.5383 18.8268 49.6777C18.7181 52.332 19.9271 54.9729 22.3313 57.3323C23.255 58.2305 25.6865 60 25.9989 60C26.3249 60 28.7699 58.2037 29.6936 57.3055C31.9756 55.0266 33.1982 52.4929 33.1982 50.0129C33.1982 47.4792 31.9756 45.7231 30.2098 45.7499C29.1367 45.7633 28.4983 46.1387 26.2434 48.0423C26.0396 48.2165 25.8902 48.1361 24.8171 47.2513C23.1735 45.9108 22.1548 45.522 21.1088 45.817Z"
    fill="#9D9C9C" />
</svg>