<svg viewBox="0 0 20 20" xmlns="http://www.w3.org/2000/svg">
  <g id="Vector">
    <path
      d="M5.02774 1.75C5.02774 0.784 5.81155 0 6.77731 0H18.2504C19.2162 0 20 0.784 20 1.75V13.248C20 13.7121 19.8157 14.1572 19.4876 14.4854C19.1595 14.8136 18.7145 14.998 18.2504 14.998H6.77731C6.31329 14.998 5.86828 14.8136 5.54018 14.4854C5.21207 14.1572 5.02774 13.7121 5.02774 13.248V1.75ZM6.77731 1.5C6.71102 1.5 6.64745 1.52634 6.60057 1.57322C6.5537 1.62011 6.52737 1.6837 6.52737 1.75V13.248C6.52737 13.387 6.63934 13.498 6.77731 13.498H18.2504C18.3167 13.498 18.3803 13.4717 18.4272 13.4248C18.474 13.3779 18.5004 13.3143 18.5004 13.248V1.75C18.5004 1.6837 18.474 1.62011 18.4272 1.57322C18.3803 1.52634 18.3167 1.5 18.2504 1.5H6.77731Z"
      fill="#4F4C4C" />
    <path
      d="M2.85668e-07 8.749C-0.000131051 8.5191 0.0450258 8.29143 0.132891 8.079C0.220756 7.86656 0.349607 7.67353 0.512082 7.51092C0.674557 7.34831 0.867471 7.21932 1.0798 7.13131C1.29214 7.0433 1.51972 6.998 1.74956 6.998H3.25419C3.45305 6.998 3.64377 7.07702 3.78438 7.21767C3.925 7.35832 4.004 7.54909 4.004 7.748C4.004 7.94691 3.925 8.13768 3.78438 8.27833C3.64377 8.41898 3.45305 8.498 3.25419 8.498H1.74956C1.68328 8.498 1.6197 8.52434 1.57283 8.57122C1.52596 8.61811 1.49963 8.6817 1.49963 8.748L1.50462 18.25C1.50462 18.388 1.6156 18.5 1.75456 18.5H11.2522C11.3185 18.5 11.382 18.4737 11.4289 18.4268C11.4758 18.3799 11.5021 18.3163 11.5021 18.25V16.74C11.5021 16.5411 11.5811 16.3503 11.7217 16.2097C11.8624 16.069 12.0531 15.99 12.2519 15.99C12.4508 15.99 12.6415 16.069 12.7821 16.2097C12.9228 16.3503 13.0017 16.5411 13.0017 16.74V18.25C13.0017 18.7141 12.8174 19.1592 12.4893 19.4874C12.1612 19.8156 11.7162 20 11.2522 20H1.75456C1.29055 20 0.845541 19.8156 0.517434 19.4874C0.189328 19.1592 0.00499903 18.7141 0.00499903 18.25L2.85668e-07 8.749Z"
      fill="#4F4C4C" />
  </g>
</svg>