<svg xmlns="http://www.w3.org/2000/svg" width="39" height="40" fill="none">
  <path fill="#909090" d="m31 .103 7.9 8.286v31.508H9.39V40H39V8.493l-8-8.39Z" />
  <path fill="#F4F4F4" d="M30.902 0H9.289v39.897H38.9V8.39L30.902 0Z" />
  <path fill="#7A7B7C" d="M0 2.143v9.753h28.537V2.143H0Z" />
  <path fill="#DD2025" d="M28.689 11.73H.184V1.97h28.504v9.76Z" />
  <path fill="#464648"
    d="M9.636 3.62H7.78v6.857h1.46V8.164l.322.019c.313-.006.623-.062.918-.167.26-.09.497-.231.7-.416.207-.176.37-.398.476-.649.142-.416.193-.859.15-1.297a3.213 3.213 0 0 0-.163-.92 1.676 1.676 0 0 0-.975-.928 3.038 3.038 0 0 0-1.034-.186m-.268 3.277H9.24V4.783h.274a.805.805 0 0 1 .651.258c.171.23.262.51.26.798 0 .351 0 .67-.315.894a1.332 1.332 0 0 1-.744.164Zm5.212-3.296c-.158 0-.311.012-.419.016l-.338.009h-1.107v6.857h1.303a3.78 3.78 0 0 0 1.46-.25c.374-.15.706-.39.965-.702.252-.313.432-.678.53-1.07.111-.443.165-.898.161-1.355a6.35 6.35 0 0 0-.123-1.61 2.544 2.544 0 0 0-.568-1.047 2.316 2.316 0 0 0-.76-.572 3.41 3.41 0 0 0-.78-.254 1.81 1.81 0 0 0-.323-.024m-.258 5.624h-.142V4.846h.018a1.5 1.5 0 0 1 .852.153c.193.154.35.35.46.571.12.233.188.49.202.751.012.315 0 .572 0 .785.005.245-.01.49-.047.733-.044.248-.125.49-.24.714a1.61 1.61 0 0 1-.515.514.951.951 0 0 1-.591.152m7.212-5.593h-3.45v6.857h1.46v-2.72h1.845V6.489H19.54V4.9h1.987V3.626" />
  <path fill="#DD2025"
    d="M27.707 26.079s4.527-.826 4.527.73c0 1.555-2.804.922-4.527-.73Zm-3.346.118c-.719.16-1.42.394-2.091.699l.568-1.286c.568-1.286 1.157-3.039 1.157-3.039a20.304 20.304 0 0 0 2.354 3.218c-.67.1-1.333.237-1.988.411v-.003Zm-1.791-9.286c0-1.355.435-1.725.775-1.725.339 0 .72.164.734 1.341a15.488 15.488 0 0 1-.734 3.477 6.355 6.355 0 0 1-.777-3.088l.002-.005Zm-6.6 15.023c-1.39-.835 2.911-3.408 3.69-3.491-.004.001-2.237 4.366-3.69 3.491Zm17.585-4.941c-.014-.143-.142-1.724-2.939-1.657a20.074 20.074 0 0 0-3.482.247 17.908 17.908 0 0 1-2.857-3.793c.492-1.43.79-2.919.885-4.429-.041-1.714-.449-2.697-1.755-2.682-1.306.014-1.496 1.164-1.325 2.875.169 1.15.486 2.273.945 3.34 0 0-.604 1.89-1.402 3.77-.798 1.88-1.343 2.866-1.343 2.866a13.63 13.63 0 0 0-3.869 2c-1.17 1.096-1.645 1.937-1.029 2.779.531.725 2.39.89 4.05-1.3a32.227 32.227 0 0 0 2.414-3.56s2.533-.699 3.321-.89c.788-.192 1.74-.343 1.74-.343s2.313 2.341 4.544 2.258c2.23-.083 2.122-1.341 2.108-1.478" />
  <path fill="#909090" d="M30.793.11V8.5h7.997L30.793.11Z" />
  <path fill="#F4F4F4" d="M30.902 0v8.39h7.997L30.902 0Z" />
  <path fill="#fff"
    d="M9.526 3.51H7.671v6.857h1.465V8.056l.324.018c.313-.005.623-.062.918-.167.259-.09.497-.23.7-.416.205-.176.367-.398.472-.648a3.06 3.06 0 0 0 .149-1.297 3.213 3.213 0 0 0-.162-.92 1.676 1.676 0 0 0-.976-.929 3.036 3.036 0 0 0-1.036-.187m-.268 3.277H9.13V4.673h.276a.805.805 0 0 1 .651.258c.171.23.262.51.26.798 0 .351 0 .67-.315.894a1.33 1.33 0 0 1-.744.163m5.21-3.295c-.157 0-.31.012-.418.016l-.334.009h-1.107v6.857h1.303a3.78 3.78 0 0 0 1.46-.25c.374-.15.706-.39.965-.702.252-.313.432-.678.53-1.07.11-.443.165-.898.161-1.355a6.342 6.342 0 0 0-.123-1.61 2.542 2.542 0 0 0-.568-1.047 2.314 2.314 0 0 0-.76-.572 3.413 3.413 0 0 0-.78-.254 1.81 1.81 0 0 0-.323-.024m-.258 5.624h-.142V4.736h.018a1.5 1.5 0 0 1 .852.153c.193.154.35.35.46.571.12.233.188.49.202.751.012.315 0 .572 0 .785a4.2 4.2 0 0 1-.047.733c-.044.248-.125.49-.24.714a1.61 1.61 0 0 1-.516.514.95.95 0 0 1-.59.152m7.208-5.593h-3.45v6.857h1.46v-2.72h1.845V6.379H19.43V4.79h1.988V3.516" />
</svg>